<svg width="100" height="100" viewBox="0 0 100 100" xmlns="http://www.w3.org/2000/svg">
  <defs>
    <linearGradient id="wave" x1="0" y1="0" x2="1" y2="0">
      <stop offset="0" stop-color="#1e3a5f"/>
      <stop offset="0.45" stop-color="#1e3a5f"/>
      <stop offset="0.55" stop-color="#e8722e"/>
      <stop offset="1" stop-color="#e8722e"/>
    </linearGradient>
  </defs>
  <rect width="100" height="100" rx="14" fill="#f5f7fa"/>
  <g fill="#1e3a5f">
    <rect x="18" y="20" width="12" height="24" rx="1.5"/>
    <rect x="18" y="56" width="12" height="22" rx="1.5"/>
    <rect x="33" y="65" width="20" height="13" rx="1.5"/>
  </g>
  <g fill="#e8722e">
    <rect x="55" y="20" width="14" height="14" rx="1.5"/>
    <rect x="72" y="20" width="14" height="14" rx="1.5"/>
    <rect x="63" y="38" width="12" height="10" rx="1.5"/>
    <rect x="63" y="56" width="12" height="22" rx="1.5"/>
  </g>
  <path d="M 10 52 Q 20 44 30 52 Q 40 60 50 52 Q 60 44 70 52 Q 80 60 90 52"
        stroke="url(#wave)" stroke-width="3.5" fill="none"
        stroke-linecap="round" stroke-linejoin="round"/>
</svg>
