<?xml version="1.0" encoding="UTF-8" standalone="no"?>
<!-- Created with Inkscape (http://www.inkscape.org/) -->

<svg
   xmlns:dc="http://purl.org/dc/elements/1.1/"
   xmlns:cc="http://creativecommons.org/ns#"
   xmlns:rdf="http://www.w3.org/1999/02/22-rdf-syntax-ns#"
   xmlns:svg="http://www.w3.org/2000/svg"
   xmlns="http://www.w3.org/2000/svg"
   xmlns:sodipodi="http://sodipodi.sourceforge.net/DTD/sodipodi-0.dtd"
   xmlns:inkscape="http://www.inkscape.org/namespaces/inkscape"
   width="346.79999"
   height="64.200058"
   viewBox="0 0 91.757499 16.986265"
   version="1.1"
   id="svg25387"
   inkscape:version="0.92.0 r15299"
   sodipodi:docname="tektronix.svg">
  <defs
     id="defs25381" />
  <sodipodi:namedview
     id="base"
     pagecolor="#ffffff"
     bordercolor="#666666"
     borderopacity="1.0"
     inkscape:pageopacity="0.0"
     inkscape:pageshadow="2"
     inkscape:zoom="0.35"
     inkscape:cx="919.54286"
     inkscape:cy="-439.0687"
     inkscape:document-units="mm"
     inkscape:current-layer="layer1"
     showgrid="false"
     fit-margin-top="0"
     fit-margin-left="0"
     fit-margin-right="0"
     fit-margin-bottom="0"
     units="px"
     inkscape:window-width="1280"
     inkscape:window-height="744"
     inkscape:window-x="-4"
     inkscape:window-y="-4"
     inkscape:window-maximized="1" />
  <metadata
     id="metadata25384">
    <rdf:RDF>
      <cc:Work
         rdf:about="">
        <dc:format>image/svg+xml</dc:format>
        <dc:type
           rdf:resource="http://purl.org/dc/dcmitype/StillImage" />
        <dc:title></dc:title>
      </cc:Work>
    </rdf:RDF>
  </metadata>
  <g
     inkscape:label="Layer 1"
     inkscape:groupmode="layer"
     id="layer1"
     transform="translate(230.8225,-15.343472)">
    <path
       id="path25265"
       d="m -139.32959,22.010955 c 0,0.873101 -0.68791,1.561101 -1.56103,1.561101 -0.87313,0 -1.56106,-0.688 -1.56106,-1.561101 0,-0.873099 0.68793,-1.560999 1.56106,-1.560999 0.87312,0 1.56103,0.6879 1.56103,1.560999 z m -2.88396,0 c 0,0.7408 0.55562,1.349401 1.32293,1.349401 0.76728,0 1.3229,-0.5821 1.3229,-1.349401 0,-0.7408 -0.55562,-1.349399 -1.3229,-1.349399 -0.76731,0.027 -1.32293,0.608599 -1.32293,1.349399 z m 0.97896,0.8996 h -0.21166 v -1.7992 h 0.68791 c 0.39687,0 0.58209,0.185201 0.58209,0.502701 0,0.3175 -0.21168,0.449799 -0.4498,0.502699 l 0.52918,0.7938 h -0.2646 l -0.50271,-0.7938 h -0.37041 z m 0.29104,-0.978999 c 0.26458,0 0.52918,0 0.52918,-0.3175 0,-0.2645 -0.21168,-0.3175 -0.42335,-0.3175 h -0.39687 v 0.635 z"
       class="st0"
       inkscape:connector-curvature="0"
       style="fill:#434750;fill-opacity:1;stroke-width:0.26458332" />
    <path
       style="fill:#434750;fill-opacity:1;stroke-width:0.26458332"
       inkscape:connector-curvature="0"
       id="XMLID_234_"
       class="st0"
       d="m -218.20188,27.276155 c 0.13229,1.1906 1.27,1.9844 2.56646,1.9844 1.05833,0 1.64042,-0.4498 2.03729,-1.0583 h 3.41313 c -0.55563,1.2435 -1.32292,2.2225 -2.27542,2.8575 -0.92604,0.6614 -2.03729,1.0054 -3.175,1.0054 -3.20146,0 -5.92667,-2.5929 -5.92667,-5.9267 0,-3.1221 2.46063,-6.005999 5.84729,-6.005999 1.7198,0 3.175,0.661399 4.23334,1.772699 1.40229,1.508101 1.82562,3.307301 1.56104,5.3446 h -8.28146 z m 5.02708,-2.539999 c -0.0794,-0.5291 -0.76729,-1.772701 -2.48708,-1.772701 -1.71979,0 -2.40771,1.243601 -2.48708,1.772701 z" />
    <path
       style="fill:#434750;fill-opacity:1;stroke-width:0.26458332"
       inkscape:connector-curvature="0"
       id="XMLID_232_"
       class="st0"
       d="m -196.6648,20.952655 3.33375,-4.9213 v 4.4979 h 2.06375 v 2.778201 h -2.06375 v 8.360799 h -3.33375 z" />
    <path
       style="fill:#434750;fill-opacity:1;stroke-width:0.26458332"
       inkscape:connector-curvature="0"
       id="XMLID_230_"
       class="st0"
       d="m -190.23543,20.529255 h 3.14855 v 1.243601 c 0.3175,-0.608601 0.89958,-1.6404 2.83104,-1.6404 v 3.360199 h -0.13229 c -1.7198,0 -2.51355,0.635 -2.51355,2.196 v 6.0061 h -3.33375 z" />
    <path
       style="fill:#434750;fill-opacity:1;stroke-width:0.26458332"
       inkscape:connector-curvature="0"
       id="XMLID_227_"
       class="st0"
       d="m -183.8325,26.085555 c 0,-2.725199 1.95791,-5.9267 6.00603,-5.9267 4.07459,0 6.00604,3.201501 6.00604,5.9267 0,2.7252 -1.95791,5.9267 -6.00604,5.9267 -4.07458,0.026 -6.00603,-3.175 -6.00603,-5.9267 z m 3.33375,0.027 c 0,1.6139 1.21707,2.8045 2.67228,2.8045 1.45522,0 2.67229,-1.1906 2.67229,-2.8045 0,-1.640499 -1.21707,-2.804599 -2.67229,-2.804599 -1.45521,-0.026 -2.67228,1.1641 -2.67228,2.804599 z" />
    <path
       style="fill:#434750;fill-opacity:1;stroke-width:0.26458332"
       inkscape:connector-curvature="0"
       id="XMLID_225_"
       class="st0"
       d="m -170.73563,20.529255 h 3.12208 v 1.190701 c 0.37042,-0.555701 1.0848,-1.561101 3.06917,-1.561101 3.75708,0 4.15395,3.0692 4.15395,4.577301 v 6.984999 h -3.33375 v -6.0854 c 0,-1.217099 -0.26457,-2.3019 -1.74625,-2.3019 -1.64041,0 -1.905,1.190701 -1.905,2.3284 v 6.0854 h -3.33375 z" />
    <path
       style="fill:#434750;fill-opacity:1;stroke-width:0.26458332"
       inkscape:connector-curvature="0"
       id="XMLID_223_"
       class="st0"
       d="m -158.82937,20.529255 h 3.33375 v 11.1655 h -3.33375 z" />
    <path
       style="fill:#434750;fill-opacity:1;stroke-width:0.26458332"
       inkscape:connector-curvature="0"
       id="XMLID_222_"
       class="st0"
       d="m -157.13605,19.418055 v 0 c -1.05832,0 -1.905,-0.8467 -1.905,-1.905 v 0 c 0,-1.0583 0.84668,-1.905 1.905,-1.905 v 0 c 1.05833,0 1.905,0.8467 1.905,1.905 v 0 c -0.0265,1.0583 -0.87313,1.905 -1.905,1.905 z" />
    <polygon
       points="112.4,16.2 82.2,60.8 95.9,60.8 126.2,16.2 "
       class="st1"
       id="XMLID_221_"
       style="fill:#1cb5d8"
       transform="matrix(0.26458333,0,0,0.26458333,-230.55792,15.608053)" />
    <polygon
       style="fill:#434750;fill-opacity:1"
       id="XMLID_219_"
       class="st0"
       points="13.9,60.8 28.3,60.8 28.3,13.9 40.8,13.9 49.3,1.2 0,1.2 0,13.9 13.9,13.9 "
       transform="matrix(0.26458333,0,0,0.26458333,-230.55792,15.608053)" />
    <polygon
       style="fill:#434750;fill-opacity:1"
       id="XMLID_218_"
       class="st0"
       points="123.6,60.8 112.6,40.3 104.4,52.4 108.9,60.8 "
       transform="matrix(0.26458333,0,0,0.26458333,-230.55792,15.608053)" />
    <polygon
       style="fill:#434750;fill-opacity:1"
       id="XMLID_217_"
       class="st0"
       points="82.8,1.2 82.8,55.7 95.4,37.1 95.4,1.2 "
       transform="matrix(0.26458333,0,0,0.26458333,-230.55792,15.608053)" />
    <polygon
       style="fill:#434750;fill-opacity:1"
       class="st0"
       points="330.5,60.8 316.2,39.7 330.4,18.6 316.4,18.6 309.1,29.3 301.9,18.6 287.8,18.6 302.1,39.7 287.8,60.8 301.8,60.8 309.1,50 316.4,60.8 "
       id="polygon25283"
       transform="matrix(0.26458333,0,0,0.26458333,-230.55792,15.608053)" />
  </g>
</svg>
