<?xml version="1.0" encoding="utf-8"?>
<!-- Generator: Adobe Illustrator 14.0.0, SVG Export Plug-In . SVG Version: 6.00 Build 43363)  -->
<!DOCTYPE svg PUBLIC "-//W3C//DTD SVG 1.1//EN" "http://www.w3.org/Graphics/SVG/1.1/DTD/svg11.dtd">
<svg version="1.1" id="Ebene_1" xmlns="http://www.w3.org/2000/svg" xmlns:xlink="http://www.w3.org/1999/xlink" x="0px" y="0px"
	 width="601px" height="601px" viewBox="0 0 601 601" enable-background="new 0 0 601 601" xml:space="preserve">
<path fill="#F79239" d="M0.494,300.947C0.494,134.984,135.034,0.444,300.99,0.444c165.97,0,300.511,134.541,300.511,300.503
	S466.96,601.444,300.99,601.444C135.034,601.444,0.494,466.91,0.494,300.947"/>
<path fill="#FFFFFF" d="M103.913,344.721v32.286c-30.635,0-49.055-1.733-55.268-5.192c-7.364-4.049-11.05-15.681-11.05-34.896
	v-47.465H21.552v-26.004h16.694v-35.327h44.431v35.327h21.675v26.004H82.677v41.177c0,5.638,0.829,9.392,2.487,11.269
	c1.664,1.885,5.528,2.822,11.598,2.822H103.913"/>
<path fill-rule="evenodd" clip-rule="evenodd" fill="#FFFFFF" d="M241.488,330.418h-86.04c0,6.555,2.165,11.96,6.508,16.188
	c4.329,4.232,9.604,6.35,15.817,6.35c8.091,0,13.722-3.322,16.907-9.967h43.122c-3.61,13.002-11.7,22.756-24.271,29.258
	c-10.687,5.486-23.552,8.227-38.581,8.227c-18.928,0-34.245-5.055-45.945-15.193c-12.419-10.715-18.64-25.333-18.64-43.856
	c0-18.386,6.11-33.183,18.318-44.404c12.207-11.214,27.559-16.824,46.062-16.824c20.797,0,37.128,6.433,48.973,19.291
	C235.569,292.343,241.488,309.318,241.488,330.418 M155.448,307.441h40.965c0-5.206-1.986-9.789-5.967-13.762
	c-3.966-3.973-8.631-5.96-13.981-5.96c-6.788,0-11.987,1.733-15.598,5.207C157.257,296.385,155.455,301.229,155.448,307.441z"/>
<path fill="#FFFFFF" d="M244.455,341.898h42.91c0,4.487,1.548,7.912,4.658,10.297c3.104,2.391,6.83,3.575,11.159,3.575
	c4.192,0,7.439-0.651,9.755-1.952c3.034-1.74,4.549-4.487,4.549-8.255c0-4.493-6.001-8.042-17.989-10.646
	c-17.476-3.768-28.607-6.809-33.375-9.125c-12.132-5.932-18.201-15.275-18.201-28.017c0-13.18,5.994-23.1,17.982-29.765
	c9.542-5.213,21.462-7.816,35.766-7.816c15.317,0,27.456,2.165,36.409,6.501c12.132,5.925,18.783,15.68,19.941,29.258h-40.965
	c-0.432-3.466-1.843-6.172-4.227-8.125c-2.384-1.959-5.453-2.925-9.214-2.925c-8.521,0-12.783,2.672-12.783,8.036
	c0,3.912,6.146,7.234,18.421,9.994c17.626,3.905,29.189,7.241,34.677,9.988c12.433,6.227,18.64,15.495,18.64,27.805
	c0,12.167-5.172,21.832-15.496,28.998c-10.33,7.172-25.538,10.748-45.623,10.748c-15.598,0-28.319-2.596-38.143-7.803
	C250.743,366.032,244.455,355.771,244.455,341.898"/>
<path fill="#FFFFFF" d="M443.943,344.721v32.286c-30.635,0-49.056-1.733-55.275-5.192c-7.364-4.049-11.043-15.681-11.043-34.896
	v-47.465h-16.036v-26.004h16.68v-35.327H422.7v35.327h21.675v26.004H422.7v41.177c0,5.638,0.836,9.392,2.486,11.269
	c1.672,1.885,5.535,2.822,11.604,2.822H443.943"/>
<path fill-rule="evenodd" clip-rule="evenodd" fill="#FFFFFF" d="M451.272,321.643c0-19.545,5.81-34.67,17.435-45.377
	c11.639-10.714,27.278-16.071,46.925-16.071c19.941,0,35.725,5.391,47.356,16.173c11.632,10.783,17.447,25.079,17.447,42.884
	c0,19.975-6.213,35.389-18.64,46.246c-11.412,9.988-26.729,14.975-45.945,14.975c-19.071,0-34.389-4.918-45.951-14.756
	C457.479,355.154,451.272,340.453,451.272,321.643 M516.282,290.535c-6.939,0-12.132,3.192-15.604,9.57
	c-2.891,5.219-4.337,11.604-4.337,19.147c0,10.295,1.74,18.009,5.207,23.16c3.459,5.152,8.233,7.721,14.303,7.721
	c6.357,0,11.193-2.5,14.523-7.501c3.322-5.001,4.979-12.797,4.979-23.38c0-8.563-1.691-15.482-5.09-20.777
	C526.866,293.179,522.208,290.535,516.282,290.535z"/>
</svg>
